<svg xmlns="http://www.w3.org/2000/svg" xmlns:xlink="http://www.w3.org/1999/xlink" width="1920" height="1080" viewBox="0 0 1920 1080">
  <defs>
    <linearGradient id="linear-gradient" x1="0.5" y1="-0.179" x2="0.5" y2="1.028" gradientUnits="objectBoundingBox">
      <stop offset="0" stop-color="#5ac8fa"/>
      <stop offset="1" stop-color="#fff" stop-opacity="0"/>
    </linearGradient>
    <filter id="Rectangle_26" x="696" y="239" width="528" height="609" filterUnits="userSpaceOnUse">
      <feOffset dy="3" input="SourceAlpha"/>
      <feGaussianBlur stdDeviation="3" result="blur"/>
      <feFlood flood-opacity="0.161"/>
      <feComposite operator="in" in2="blur"/>
      <feComposite in="SourceGraphic"/>
    </filter>
    <linearGradient id="linear-gradient-3" x1="-0.026" x2="1.044" y2="0.933" gradientUnits="objectBoundingBox">
      <stop offset="0" stop-color="#76d1fb"/>
      <stop offset="0.448" stop-color="#fcfcfc"/>
      <stop offset="1" stop-color="#76d1fb"/>
    </linearGradient>
    <radialGradient id="radial-gradient" cx="0.5" cy="0.5" r="0.5" gradientUnits="objectBoundingBox">
      <stop offset="0"/>
      <stop offset="1" stop-opacity="0"/>
    </radialGradient>
    <linearGradient id="linear-gradient-5" x1="-0.231" y1="0.026" x2="1.376" y2="1.181" gradientUnits="objectBoundingBox">
      <stop offset="0" stop-color="#76d1fb"/>
      <stop offset="0.483" stop-color="#fff"/>
      <stop offset="1" stop-color="#76d1fb"/>
    </linearGradient>
    <linearGradient id="linear-gradient-6" x1="0.931" y1="0.221" x2="-0.071" y2="0.836" gradientUnits="objectBoundingBox">
      <stop offset="0" stop-color="#76d1fb"/>
      <stop offset="0.335" stop-color="#fff"/>
      <stop offset="1" stop-color="#76d1fb"/>
    </linearGradient>
    <clipPath id="clip-Artboard_3">
      <rect width="1920" height="1080"/>
    </clipPath>
  </defs>
  <g id="Artboard_3" data-name="Artboard – 3" clip-path="url(#clip-Artboard_3)">
    <rect width="1920" height="1080" fill="#fff"/>
    <rect id="Gradient_Background" data-name="Gradient Background" width="1920.375" height="755" fill="url(#linear-gradient)"/>
    <rect id="Gradient_Background-2" data-name="Gradient Background" width="1920.375" height="755" fill="url(#linear-gradient)"/>
    <g transform="matrix(1, 0, 0, 1, 0, 0)" filter="url(#Rectangle_26)">
      <g id="Rectangle_26-2" data-name="Rectangle 26" transform="translate(705 245)" fill="#fff" stroke="#f2f2f2" stroke-width="1">
        <rect width="510" height="591" rx="13" stroke="none"/>
        <rect x="0.5" y="0.5" width="509" height="590" rx="12.5" fill="none"/>
      </g>
    </g>
    <g id="mac_blue" transform="translate(-1627.382 -136.119)">
      <path id="Rectangle_29" data-name="Rectangle 29" d="M0,0H306a13,13,0,0,1,13,13v2a0,0,0,0,1,0,0H0a0,0,0,0,1,0,0V0A0,0,0,0,1,0,0Z" transform="translate(2523.382 381.119)" fill="#5865ff"/>
      <path id="Path_13" data-name="Path 13" d="M2458.109,503.049v146.64a3.6,3.6,0,0,0,3.6,3.6H2713.64a3.6,3.6,0,0,0,3.6-3.6V503.049a11.93,11.93,0,0,0-11.93-11.93H2470.04A11.931,11.931,0,0,0,2458.109,503.049Zm130.876-6.815a1.315,1.315,0,1,1-1.312-1.233A1.274,1.274,0,0,1,2588.985,496.234ZM2465.954,499.7h243.438V644.167H2465.954Z" fill="url(#linear-gradient-3)"/>
      <path id="Path_14" data-name="Path 14" d="M2428.821,656.106h136.343a.031.031,0,0,0-.031.031,3.756,3.756,0,0,0,3.756,3.756h37.568a3.756,3.756,0,0,0,3.756-3.756.031.031,0,0,0-.031-.031h136.343a.438.438,0,0,1,.438.438v3.4c0,3.619-26.107,6.553-29.727,6.553H2458.109c-3.619,0-29.727-2.934-29.727-6.553v-3.4A.439.439,0,0,1,2428.821,656.106Z" fill="url(#linear-gradient-3)"/>
      <ellipse id="Ellipse_9" data-name="Ellipse 9" cx="134.5" cy="20.5" rx="134.5" ry="20.5" transform="translate(2448.382 685.119)" opacity="0.128" fill="url(#radial-gradient)"/>
    </g>
    <g id="iphone_blue" transform="translate(-22.307 -490.007)">
      <g id="Iphone_icon" data-name="Iphone icon" transform="translate(889.227 962.623)">
        <g id="Group_38" data-name="Group 38" transform="translate(0 0)">
          <rect id="Rectangle_27" data-name="Rectangle 27" width="53" height="82" transform="translate(0.08 11.384)" fill="#fff"/>
          <path id="Path_12" data-name="Path 12" d="M595.31,525.907H555.963a7.229,7.229,0,0,0-7.229,7.228v90.729a7.228,7.228,0,0,0,7.229,7.228H595.31a7.227,7.227,0,0,0,7.228-7.228V533.136A7.228,7.228,0,0,0,595.31,525.907Zm-23.667,7.638H580a.557.557,0,1,1,0,1.115h-8.358a.557.557,0,0,1,0-1.115Zm-4.386-.133a.691.691,0,1,1-.687.691A.689.689,0,0,1,567.258,533.412Zm33.285,83.23a.277.277,0,0,1-.277.277H551.007a.277.277,0,0,1-.277-.277V539.557a.277.277,0,0,1,.277-.277h49.259a.277.277,0,0,1,.277.277Z" transform="translate(-548.246 -525.907)" fill="url(#linear-gradient-5)"/>
        </g>
      </g>
      <ellipse id="Ellipse_8" data-name="Ellipse 8" cx="36.5" cy="11" rx="36.5" ry="11" transform="translate(880.307 1088.007)" opacity="0.157" fill="url(#radial-gradient)"/>
    </g>
    <g id="Group_39" data-name="Group 39" transform="translate(-33 -103)">
      <g id="watch_hover" transform="translate(9.458 -313.244)" opacity="0.429">
        <ellipse id="Ellipse_7" data-name="Ellipse 7" cx="18" cy="5.5" rx="18" ry="5.5" transform="translate(1034.542 1025.244)" opacity="0.297" fill="url(#radial-gradient)"/>
      </g>
      <g id="watch_blue" transform="translate(-265 347.312)">
        <g id="Group_40" data-name="Group 40">
          <rect id="Rectangle_28" data-name="Rectangle 28" width="31" height="35" rx="11" transform="translate(1312 304.688)" fill="#fff"/>
          <path id="Path_15" data-name="Path 15" d="M3197.622,555.91h-1.088v-2.166a5.109,5.109,0,0,0-3.19-4.734l-.945-1.407a4.275,4.275,0,0,1-.651-1.574L3190.2,538a2.639,2.639,0,0,0-2.642-2.059h-12.969a2.64,2.64,0,0,0-2.642,2.059l-1.548,8.032a4.264,4.264,0,0,1-.652,1.574l-.944,1.407a5.109,5.109,0,0,0-3.19,4.734v25.638a5.108,5.108,0,0,0,3.19,4.734l.944,1.407a4.268,4.268,0,0,1,.652,1.574l1.548,8.033a2.639,2.639,0,0,0,2.642,2.058h12.969a2.638,2.638,0,0,0,2.642-2.058l1.548-8.033a4.279,4.279,0,0,1,.651-1.574l.945-1.407a5.109,5.109,0,0,0,3.19-4.734V563.445h1.088a.991.991,0,0,0,.991-.991V556.9A.991.991,0,0,0,3197.622,555.91Zm-1.867,23.472a4.336,4.336,0,0,1-4.331,4.331h-20.7a4.336,4.336,0,0,1-4.331-4.331V553.745a4.335,4.335,0,0,1,4.331-4.331h20.7a4.335,4.335,0,0,1,4.331,4.331Z" transform="translate(-1853.613 -243.938)" fill="url(#linear-gradient-6)"/>
        </g>
      </g>
    </g>
    <g id="Group_41" data-name="Group 41" transform="translate(38 -8)">
      <path id="Path_16" data-name="Path 16" d="M7.5,0A7.5,7.5,0,1,1,0,7.5,7.5,7.5,0,0,1,7.5,0Z" transform="translate(895 682)" fill="#2ba7e2"/>
      <path id="Path_17" data-name="Path 17" d="M7.5,0A7.5,7.5,0,1,1,0,7.5,7.5,7.5,0,0,1,7.5,0Z" transform="translate(915 682)" fill="#2ba7e2"/>
      <path id="Path_18" data-name="Path 18" d="M7.5,0A7.5,7.5,0,1,1,0,7.5,7.5,7.5,0,0,1,7.5,0Z" transform="translate(935 682)" fill="#2ba7e2"/>
    </g>
    <text id="Signing_you_Up_" data-name="Signing you Up…" transform="translate(960 721)" font-size="20" font-family="Poppins-Medium, Poppins" font-weight="500"><tspan x="-80.26" y="0">Signing you Up…</tspan></text>
  </g>
</svg>
